<svg xmlns="http://www.w3.org/2000/svg" viewBox="0 0 4667.34 3656.95"><defs><style>.cls-1{fill:#233b76;}.cls-2{fill:#fff;}</style></defs><g id="Layer_2" data-name="Layer 2"><g id="Layer_1-2" data-name="Layer 1"><g id="M_Logo" data-name="M Logo"><path id="Background_Blue" data-name="Background Blue" class="cls-1" d="M4267,1347.67V1073.93l162-32.63,90.57-18.14,72.27-14.64V73.17H2988l-26.34,43.6-32.77,54.58-599.57,995.77L1734.1,171.93l-32.77-54.87-26.19-43.89H70.86v935.35l72.28,14.64,90.56,18.14,162,32.63v1404l-162,32.63-90.56,18.14-72.28,14.49v935.5h1894.7V3034.17l199,273.74,90.86,125,72.57,99.93,73-99.64,91.29-124.65,204.84-279.74v449.9H4591.8v-935.5l-72.27-14.49L4429,2510.53l-162-32.63V1347.67Z"/><path id="Outline_Blue" data-name="Outline Blue" class="cls-1" d="M401.81,2199.3v278.58l-162,32.62-90.56,18.14L77,2543.13v935.5H1971.7V3034.14l199,273.74,90.86,124.95,72.57,99.93,73-99.64,91.3-124.65,204.83-279.74v449.9h1894.7v-935.5l-72.28-14.49-90.56-18.14-162-32.62v-1404l162-32.63,90.56-18.14,72.28-14.64V73.14H2994.1l-26.33,43.6L2935,171.32l-599.58,995.77L1740.24,171.9,1707.46,117l-26.18-43.89H77v935.35l72.28,14.64,90.56,18.14,162,32.63v273.74m90.12,0v-307a49.53,49.53,0,0,0-39.79-48.57L257.54,952.9l-90.42-18.14V163.27h1463L1663,218.14l672.14,1124.23L3012.25,217.84,3045,163.27h1462.8V934.76L4417.4,952.9l-194.6,39.21a49.53,49.53,0,0,0-39.79,48.57V2511.09a49.64,49.64,0,0,0,39.79,48.57l194.6,39.21,90.42,18.15V3388.5H2793.37V2752.94l-367.68,502.28-91.29,124.65-90.86-124.95-362-498.18V3388.5H167.12V2617l90.42-18.15,194.6-39.21a49.64,49.64,0,0,0,39.79-48.57V2199.3"/><path id="Pocket_Blue_R" data-name="Pocket Blue R" class="cls-1" d="M3033.17,2519.43v-3.37l.3-3.51,6.14-101.25-131.53,179.82,88.37-23.71A49.77,49.77,0,0,0,3033.17,2519.43Z"/><path id="Pocket_Blue_L" data-name="Pocket Blue L" class="cls-1" d="M1633.88,2512.55l.29,3.51v3.37a49.78,49.78,0,0,0,36.72,48l86,23-129.19-177.62Z"/><path id="Inner_White_Outline" data-name="Inner White Outline" class="cls-2" d="M2902.23,3275.7V2709.34l123.48-33.22A162.2,162.2,0,0,0,3146,2519.43l19.46-320.13H3055.12l-724.23,989.34-719-989.34h-110l19.46,320.13a162.19,162.19,0,0,0,120.26,156.69l123.49,33.22V3275.7H276V2709.34l194.59-39.22a162.28,162.28,0,0,0,130.36-159V2199.3H488.13v311.79a49.64,49.64,0,0,1-39.79,48.57l-194.59,39.21L163.33,2617V3388.5H1877.77V2756.74l362,498.18,90.86,124.95,91.3-124.65,367.67-502.28V3388.5H4504V2617l-90.42-18.14L4219,2559.66a49.64,49.64,0,0,1-39.8-48.57V2199.3h-112.8v311.79a162.27,162.27,0,0,0,130.36,159l194.59,39.22V3275.7Zm137.38-864.4-6.14,101.25-.3,3.51v3.37a49.77,49.77,0,0,1-36.72,48l-88.37,23.71ZM1670.89,2567.41a49.78,49.78,0,0,1-36.72-48v-3.37l-.29-3.51-6.15-99.78,129.19,177.62Zm660.44-1225v5.27H2203.16L1562.33,275.93H276v566.5l194.59,39.21a162.3,162.3,0,0,1,130.36,159v307H488.13v-307a49.53,49.53,0,0,0-39.79-48.57L253.75,952.9l-90.42-18.14V163.27H1626.27l32.92,54.87Zm2060-1179.1H4504V934.76L4413.6,952.9,4219,992.11a49.52,49.52,0,0,0-39.8,48.57h-112.8a162.29,162.29,0,0,1,130.36-159l194.59-39.21V275.93H3105L2459.64,1347.64H2331.33v-5.27L3008.45,217.84l32.77-54.57H4391.36Zm-324.95,2036V1040.68h112.8V2199.3m-3691.08,0V1347.64H600.94V2199.3m1734.19-645.39-132-206.27h256.48Zm720,645.39,120-164-9.64,164Zm-1553.21,0-10.36-166.76,120.38,166.76Z"/><path id="Outer_White_Outline" data-name="Outer White Outline" class="cls-2" d="M4594.19,73.15v935.39l-72.38,14.56-90.46,18.2-162.05,32.6V2477.84l162.05,32.6,90.46,18.2,72.38,14.56v935.39H2699.4V3028.7l-204.76,279.72-91.26,124.66-73,99.73-72.66-100-90.83-125L1968,3034.14v444.45H73.15V2543.2l72.38-14.56,90.46-18.2,162.06-32.6V1073.9L236,1041.3l-90.46-18.2-72.38-14.56V73.15H1677.46L1703.7,117l32.8,54.86,595.07,995.25,599.6-995.79L2964,116.8l26.28-43.65H4594.19M324.9,2272.43v145.51l-103.33,20.78-90.47,18.2-72.37,14.56L0,2483.29V3551.74H2041.1V3259.23l66.6,91.63,90.83,125,72.66,100,59,81.13L2389.4,3576l73-99.73,91.26-124.66,72.59-99.15v299.26H4667.34V2483.29l-58.72-11.81-72.38-14.56-90.47-18.2-103.32-20.78V1133.8L4445.78,1113l90.46-18.2,72.38-14.56,58.72-11.81V0H2949l-21.33,35.42-26.28,43.65-32.85,54.56L2331.79,1025l-532.5-890.6-32.8-54.86-26.24-43.89L1719,0H0V1068.45l58.73,11.81,72.37,14.56,90.47,18.2L324.9,1133.8v140.72"/></g><g id="Minooka"><path id="Outside_White_edge" data-name="Outside White edge" class="cls-2" d="M4581.55,2205l-239.1,0v73.45H4653.2V1273.24H4342.45v73.47h239.1ZM324.9,1273.59H22.47V2278.84H324.9l.21-73.79H93.39V1346.72H325.11Z"/><rect id="Background_Blue-2" data-name="Background Blue" class="cls-1" x="93.39" y="1346.72" width="4488.15" height="858.33"/><path id="White_Inner_Outline" data-name="White Inner Outline" class="cls-2" d="M4179.21,1436.85H183.52v671.41H4483.83V1436.85H4179.21ZM4450,2074.46H217.32V1470.79H4450Z"/><path id="M" class="cls-2" d="M708.49,1917H637.67l-167-225.07V1983H353.05V1554.89H473.31L672.41,1821l201.77-266.06H998.45V1983H876.85V1691.9Z"/><path id="I" class="cls-2" d="M1153.42,1983V1554.89H1279V1983Z"/><path id="N" class="cls-2" d="M1434,1983V1554.89h125.6l235.18,294.81V1554.89H1911V1983H1790.78l-240.52-304.59V1983Z"/><path id="O" class="cls-2" d="M2282.49,1550h10.7c141.64,0,227.16,27.53,227.16,90.52V1897.4c0,63-85.52,90.52-227.16,90.52h-10.7c-141.63,0-227.15-27.52-227.15-90.52V1640.51C2055.34,1576.91,2140.86,1550,2282.49,1550Zm5.35,387.17c69.48,0,106.9-12.85,106.9-50.77V1651.52c0-37.91-37.42-50.76-106.9-50.76s-106.9,12.85-106.9,50.76v234.87C2180.94,1924.31,2218.36,1937.16,2287.84,1937.16Z"/><path id="O-2" data-name="O" class="cls-2" d="M2886.46,1550h10.69c141.64,0,227.16,27.53,227.16,90.52V1897.4c0,63-85.52,90.52-227.16,90.52h-10.69c-141.64,0-227.16-27.52-227.16-90.52V1640.51C2659.3,1576.91,2744.82,1550,2886.46,1550Zm5.34,387.17c69.48,0,106.9-12.85,106.9-50.77V1651.52c0-37.91-37.42-50.76-106.9-50.76s-106.89,12.85-106.89,50.76v234.87C2784.91,1924.31,2822.31,1937.16,2891.8,1937.16Z"/><path id="K" class="cls-2" d="M3634.73,1983,3482.4,1778.14l-88.19,74V1983h-125.6V1554.89h125.6V1761l219.14-206.12H3747l-191.09,160.86L3763,1983Z"/><path id="A" class="cls-2" d="M4171.87,1882.11H3971.43L3931.34,1983H3809.75l185.74-428.14h155L4338.9,1983H4210.62Zm-20-48.32-80.17-206.73-81.52,206.73Z"/></g></g></g></svg>